<svg width="45" height="42" viewBox="0 0 45 42" fill="none" xmlns="http://www.w3.org/2000/svg">
<rect width="45" height="42" rx="21" fill="#EDA415"/>
<path d="M15.3283 13.8282H16.5762C17.3507 13.8282 17.9603 14.4952 17.8958 15.2626L17.3005 22.4055C17.2001 23.5745 18.1253 24.5785 19.3014 24.5785H26.9392C27.9719 24.5785 28.8755 23.7323 28.9544 22.7067L29.3417 17.328C29.4278 16.1375 28.5241 15.1693 27.3265 15.1693H18.0679" stroke="white" stroke-width="1.47531" stroke-miterlimit="10" stroke-linecap="round" stroke-linejoin="round"/>
<path d="M25.5479 28.1716C26.043 28.1716 26.4444 27.7702 26.4444 27.2751C26.4444 26.78 26.043 26.3787 25.5479 26.3787C25.0528 26.3787 24.6515 26.78 24.6515 27.2751C24.6515 27.7702 25.0528 28.1716 25.5479 28.1716Z" stroke="white" stroke-width="1.47531" stroke-miterlimit="10" stroke-linecap="round" stroke-linejoin="round"/>
<path d="M19.8107 28.1716C20.3058 28.1716 20.7071 27.7702 20.7071 27.2751C20.7071 26.78 20.3058 26.3787 19.8107 26.3787C19.3156 26.3787 18.9142 26.78 18.9142 27.2751C18.9142 27.7702 19.3156 28.1716 19.8107 28.1716Z" stroke="white" stroke-width="1.47531" stroke-miterlimit="10" stroke-linecap="round" stroke-linejoin="round"/>
<path d="M20.3485 18.1312H28.9544" stroke="white" stroke-width="1.47531" stroke-miterlimit="10" stroke-linecap="round" stroke-linejoin="round"/>
</svg>
